<svg width="13" height="12" viewBox="0 0 13 12" fill="none" xmlns="http://www.w3.org/2000/svg">
<path d="M1.30434 6.78271C0.585393 6.78271 0 6.19732 0 5.47837V1.30444C0 0.585489 0.585393 9.63211e-05 1.30434 9.63211e-05H2.86956C3.16331 9.63211e-05 3.43356 0.0992188 3.65218 0.264105V6.78271H1.30434Z" fill="#90989F"/>
<path d="M12.5217 4.82608C12.5217 5.13963 12.3975 5.43182 12.182 5.64731C12.4257 5.91391 12.5498 6.27131 12.5159 6.6433C12.4549 7.30644 11.8575 7.82609 11.1552 7.82609H7.93244C8.09209 8.3108 8.34774 9.19931 8.34774 9.91305C8.34774 11.0447 7.38618 12 6.78251 12C6.24043 12 5.85329 11.6948 5.83661 11.6823C5.77505 11.6327 5.73905 11.5576 5.73905 11.4783V9.70905L4.23644 6.45391L4.17383 6.42209V0.830067C4.59852 0.629719 5.1359 0.521718 5.47817 0.521718H10.2672C10.8354 0.521718 11.3326 0.904684 11.4495 1.43319C11.5095 1.70503 11.4745 1.97894 11.3551 2.21685C11.7406 2.41094 11.9999 2.80799 11.9999 3.26086C11.9999 3.44555 11.9577 3.62242 11.8773 3.78259C12.2629 3.97668 12.5217 4.37373 12.5217 4.82608Z" fill="#90989F"/>
</svg>
