<svg width="41" height="41" viewBox="0 0 41 41" fill="none" xmlns="http://www.w3.org/2000/svg">
<rect x="0.5" y="0.5" width="40" height="40" rx="4.5" stroke="#AFB0B4"/>
<path d="M30.3958 20.4998C30.3958 15.3107 26.1891 11.104 21 11.104C15.8108 11.104 11.6041 15.3107 11.6041 20.4998C11.6041 25.1895 15.04 29.0767 19.5319 29.7815V23.2158H17.1462V20.4998H19.5319V18.4298C19.5319 16.075 20.9346 14.7743 23.0808 14.7743C24.1088 14.7743 25.184 14.9578 25.184 14.9578V17.27H23.9993C22.8321 17.27 22.4681 17.9943 22.4681 18.7374V20.4998H25.0739L24.6574 23.2158H22.4681V29.7815C26.9599 29.0767 30.3958 25.1895 30.3958 20.4998Z" fill="#AFB0B4"/>
</svg>
