<svg width="41" height="41" viewBox="0 0 41 41" fill="none" xmlns="http://www.w3.org/2000/svg">
<rect x="0.5" y="0.5" width="40" height="40" rx="4.5" stroke="#AFB0B4"/>
<path fill-rule="evenodd" clip-rule="evenodd" d="M21 11.9585H17.4101C16.6898 11.9585 16.0551 12.1295 15.577 12.2584C15.4799 12.2845 15.3892 12.309 15.3056 12.3299C14.6866 12.5775 14.1915 12.825 13.8201 13.3202C13.3249 13.8154 13.0773 14.3105 12.8298 14.8057L12.8298 14.8057C12.5822 15.3009 12.4584 16.0436 12.4584 16.9102V20.5002V24.0901C12.4584 24.8104 12.6294 25.4451 12.7582 25.9232C12.7844 26.0203 12.8089 26.111 12.8298 26.1946C13.0773 26.8136 13.3249 27.3087 13.8201 27.6801C14.3153 28.0515 14.8104 28.4229 15.3056 28.6705C15.8008 28.918 16.5435 29.0418 17.4101 29.0418H21H24.59C25.3102 29.0418 25.9449 28.8708 26.4231 28.742C26.5202 28.7158 26.6109 28.6914 26.6945 28.6705C27.3134 28.4229 27.8086 28.1753 28.18 27.6801C28.5514 27.1849 28.9227 26.6898 29.1703 26.1946C29.4179 25.6994 29.5417 24.9567 29.5417 24.0901V20.5002V16.9102C29.5417 16.19 29.3707 15.5553 29.2418 15.0772C29.2157 14.98 29.1912 14.8893 29.1703 14.8057C28.9227 14.1868 28.6752 13.6916 28.18 13.3202C27.6848 12.825 27.1897 12.5775 26.6945 12.3299L26.6945 12.3299C26.1993 12.0823 25.4566 11.9585 24.59 11.9585H21ZM26.6938 16.0436C26.6938 16.6625 26.1986 17.0339 25.7035 17.0339C25.2083 17.0339 24.7131 16.5387 24.7131 16.0436C24.7131 15.4246 25.2083 15.0532 25.7035 15.0532C26.1986 15.0532 26.6938 15.4246 26.6938 16.0436ZM20.9996 23.4707C19.3903 23.4707 18.1524 22.2328 18.1524 20.6235C18.1524 19.0142 19.3903 17.7763 20.9996 17.7763C22.6089 17.7763 23.8468 19.0142 23.8468 20.6235C23.8468 22.2328 22.6089 23.4707 20.9996 23.4707ZM20.9996 16.167C18.5238 16.167 16.5431 18.1477 16.5431 20.6235C16.5431 23.0994 18.5238 25.08 20.9996 25.08C23.4755 25.08 25.4561 23.0994 25.4561 20.6235C25.4561 18.1477 23.4755 16.167 20.9996 16.167Z" fill="#AFB0B4"/>
</svg>
