<svg width="18" height="18" viewBox="0 0 18 18" fill="none" xmlns="http://www.w3.org/2000/svg">
<path d="M9.73652 15.8906H12.4119C12.7775 15.2606 13.4592 14.8359 14.2383 14.8359H7.91016C8.68922 14.8359 9.3709 15.2606 9.73652 15.8906Z" fill="white"/>
<path d="M16.0646 15.8906H16.875V14.8359H14.2383C15.0173 14.8359 15.699 15.2606 16.0646 15.8906Z" fill="white"/>
<path d="M5.48859 13.8836C5.87672 13.5977 6.14918 13.1854 6.2652 12.7266H16.8061L18 4.21875H4.75291L4.21773 1.52504C4.18767 0.678973 3.49 0 2.63672 0H0V1.05469H2.63672C2.9275 1.05469 3.16406 1.29125 3.16406 1.58203V1.63392L5.27273 12.2476C5.26542 12.5571 5.11386 12.8497 4.86352 13.0342C3.64061 13.9343 4.27373 15.8906 5.80078 15.8906H6.08379C6.44941 15.2606 7.13109 14.8359 7.91016 14.8359H5.80078C5.29298 14.8359 5.07927 14.1845 5.48859 13.8836ZM11.6016 9.5625V5.27344H13.7109V9.5625H11.6016ZM10.5469 9.5625H8.4375V5.27344H10.5469V9.5625ZM16.1852 9.5625H14.7656V5.27344H16.7871L16.1852 9.5625ZM7.38281 5.27344V9.5625H5.8146L4.96248 5.27344H7.38281Z" fill="white"/>
<path d="M7.91016 18C8.49264 18 8.96484 17.5278 8.96484 16.9453C8.96484 16.3628 8.49264 15.8906 7.91016 15.8906C7.32767 15.8906 6.85547 16.3628 6.85547 16.9453C6.85547 17.5278 7.32767 18 7.91016 18Z" fill="white"/>
<path d="M14.2383 18C14.8208 18 15.293 17.5278 15.293 16.9453C15.293 16.3628 14.8208 15.8906 14.2383 15.8906C13.6558 15.8906 13.1836 16.3628 13.1836 16.9453C13.1836 17.5278 13.6558 18 14.2383 18Z" fill="white"/>
</svg>
