<svg width="12" height="12" viewBox="0 0 12 12" fill="none" xmlns="http://www.w3.org/2000/svg">
<path fill-rule="evenodd" clip-rule="evenodd" d="M5.91967 0.639085C5.97665 0.44899 6.24584 0.44899 6.30282 0.639085L7.46098 4.50259C7.48635 4.58721 7.56422 4.64516 7.65256 4.64516H11.6612C11.855 4.64516 11.9355 4.89333 11.7786 5.0071L8.6232 7.29415C8.54963 7.34747 8.52125 7.4437 8.55411 7.52841L10.0649 11.4232C10.1351 11.6041 9.93242 11.7689 9.76962 11.6633L6.22008 9.36092C6.15388 9.31798 6.06861 9.31798 6.00241 9.36092L2.45287 11.6633C2.29007 11.7689 2.08739 11.6041 2.15757 11.4232L3.66838 7.52841C3.70124 7.4437 3.67287 7.34747 3.59929 7.29415L0.443931 5.0071C0.286966 4.89333 0.367445 4.64516 0.561305 4.64516H4.56993C4.65827 4.64516 4.73615 4.58721 4.76151 4.50259L5.91967 0.639085Z" fill="#FFD600"/>
</svg>
