<svg width="41" height="41" viewBox="0 0 41 41" fill="none" xmlns="http://www.w3.org/2000/svg">
<rect x="0.5" y="0.5" width="40" height="40" rx="4.5" stroke="#AFB0B4"/>
<g clip-path="url(#clip0_14_1266)">
<path d="M19.0628 23.3856L18.765 27.5736C19.191 27.5736 19.3755 27.3906 19.5968 27.1708L21.594 25.2621L25.7325 28.2928C26.4915 28.7158 27.0263 28.4931 27.231 27.5946L29.9475 14.8656L29.9483 14.8648C30.189 13.7428 29.5425 13.3041 28.803 13.5793L12.8355 19.6926C11.7458 20.1156 11.7623 20.7231 12.6503 20.9983L16.7325 22.2681L26.2148 16.3348C26.661 16.0393 27.0668 16.2028 26.733 16.4983L19.0628 23.3856Z" fill="#AFB0B4"/>
</g>
<defs>
<clipPath id="clip0_14_1266">
<rect width="18" height="18" fill="white" transform="translate(12 12)"/>
</clipPath>
</defs>
</svg>
